<svg xmlns="http://www.w3.org/2000/svg" viewBox="0 0 500 500" role="img" aria-labelledby="title desc">
  <title id="title">Pessoa preta lendo livros</title>
  <desc id="desc">Ilustracao de uma pessoa preta lendo, cercada por livros e formas leves que reforcam a identidade visual da landing.</desc>
  <defs>
    <linearGradient id="bg3" x1="0" y1="0" x2="1" y2="1">
      <stop offset="0%" stop-color="#fff7ed"/>
      <stop offset="100%" stop-color="#e0f2fe"/>
    </linearGradient>
  </defs>

  <rect width="500" height="500" rx="36" fill="url(#bg3)"/>
  <circle cx="104" cy="108" r="40" fill="#fde68a" opacity="0.7"/>
  <circle cx="404" cy="132" r="34" fill="#bfdbfe" opacity="0.72"/>
  <circle cx="396" cy="392" r="54" fill="#fed7aa" opacity="0.6"/>

  <rect x="96" y="318" width="308" height="22" rx="11" fill="#f97316" opacity="0.12"/>
  <rect x="108" y="330" width="286" height="86" rx="18" fill="#8b5e34"/>

  <rect x="114" y="254" width="78" height="54" rx="12" fill="#2563eb"/>
  <rect x="126" y="266" width="54" height="8" rx="4" fill="#dbeafe"/>
  <rect x="126" y="282" width="36" height="8" rx="4" fill="#93c5fd"/>
  <rect x="330" y="244" width="62" height="70" rx="12" fill="#0ea5e9"/>
  <rect x="342" y="258" width="38" height="8" rx="4" fill="#ecfeff"/>
  <rect x="342" y="274" width="28" height="8" rx="4" fill="#bae6fd"/>

  <ellipse cx="248" cy="170" rx="54" ry="58" fill="#111827"/>
  <path d="M194 166c4-34 24-58 54-58s50 24 54 58c-12-9-24-13-40-13h-28c-16 0-28 4-40 13z" fill="#1f2937"/>
  <circle cx="248" cy="178" r="38" fill="#6b4423"/>
  <circle cx="233" cy="174" r="4" fill="#111827"/>
  <circle cx="263" cy="174" r="4" fill="#111827"/>
  <path d="M236 194c6 7 18 7 24 0" fill="none" stroke="#4a2f18" stroke-width="4" stroke-linecap="round"/>

  <path d="M218 206h60l-8 34h-44z" fill="#f59e0b"/>
  <path d="M206 238c10 10 76 10 86 0l10 82H196z" fill="#2563eb"/>
  <path d="M206 252l-24 38" fill="none" stroke="#6b4423" stroke-width="16" stroke-linecap="round"/>
  <path d="M292 252l30 34" fill="none" stroke="#6b4423" stroke-width="16" stroke-linecap="round"/>
  <path d="M214 320l-12 94" fill="none" stroke="#1f2937" stroke-width="16" stroke-linecap="round"/>
  <path d="M286 320l18 94" fill="none" stroke="#1f2937" stroke-width="16" stroke-linecap="round"/>

  <path d="M176 258l62 18c6 2 13 2 19 0l72-20-10 52-74 6-62-10z" fill="#ffffff" stroke="#93c5fd" stroke-width="3"/>
  <path d="M245 278c8-6 18-6 26 0" fill="none" stroke="#2563eb" stroke-width="4" stroke-linecap="round"/>
  <path d="M206 280c10 6 22 9 39 10" fill="none" stroke="#cbd5e1" stroke-width="4" stroke-linecap="round"/>
  <path d="M278 290c18-2 32-6 42-12" fill="none" stroke="#cbd5e1" stroke-width="4" stroke-linecap="round"/>
</svg>