<svg xmlns="http://www.w3.org/2000/svg" viewBox="0 0 500 500" role="img" aria-labelledby="title desc">
  <title id="title">Pessoas pretas em aula online</title>
  <desc id="desc">Ilustracao com duas pessoas pretas em contexto de aprendizagem online, com tela, chat e material de estudo.</desc>
  <defs>
    <linearGradient id="bg2" x1="0" y1="0" x2="1" y2="1">
      <stop offset="0%" stop-color="#f8fafc"/>
      <stop offset="100%" stop-color="#e0f2fe"/>
    </linearGradient>
  </defs>

  <rect width="500" height="500" rx="36" fill="url(#bg2)"/>
  <circle cx="106" cy="118" r="42" fill="#bfdbfe" opacity="0.7"/>
  <circle cx="398" cy="92" r="32" fill="#a5f3fc" opacity="0.8"/>
  <circle cx="396" cy="388" r="58" fill="#dbeafe" opacity="0.7"/>

  <rect x="88" y="108" width="168" height="118" rx="26" fill="#ffffff" stroke="#93c5fd" stroke-width="3"/>
  <rect x="108" y="128" width="128" height="78" rx="14" fill="#1e3a8a"/>
  <circle cx="172" cy="158" r="20" fill="#6b4423"/>
  <path d="M152 160c0-17 9-30 20-30s20 13 20 30v3c-5-4-12-6-20-6s-15 2-20 6z" fill="#111827"/>
  <path d="M140 196c8-18 22-27 32-27s24 9 32 27" fill="#22c55e"/>
  <rect x="280" y="86" width="128" height="90" rx="24" fill="#ffffff" stroke="#7dd3fc" stroke-width="3"/>
  <rect x="300" y="106" width="88" height="10" rx="5" fill="#2563eb"/>
  <rect x="300" y="126" width="74" height="10" rx="5" fill="#38bdf8"/>
  <rect x="300" y="146" width="54" height="10" rx="5" fill="#cbd5e1"/>

  <rect x="118" y="292" width="270" height="24" rx="12" fill="#2563eb" opacity="0.12"/>
  <rect x="138" y="304" width="230" height="88" rx="18" fill="#7c4a21"/>

  <ellipse cx="252" cy="210" rx="58" ry="62" fill="#111827"/>
  <circle cx="252" cy="216" r="40" fill="#6b4423"/>
  <circle cx="236" cy="212" r="4" fill="#111827"/>
  <circle cx="268" cy="212" r="4" fill="#111827"/>
  <path d="M240 230c7 7 17 7 24 0" fill="none" stroke="#4a2f18" stroke-width="4" stroke-linecap="round"/>
  <path d="M225 244h54l-8 32h-38z" fill="#f97316"/>
  <path d="M214 274c10 8 66 8 76 0l12 58H202z" fill="#0f766e"/>
  <path d="M214 286l-40 20" fill="none" stroke="#6b4423" stroke-width="16" stroke-linecap="round"/>
  <path d="M290 286l42 8" fill="none" stroke="#6b4423" stroke-width="16" stroke-linecap="round"/>
  <path d="M230 390l-14 34" fill="none" stroke="#1f2937" stroke-width="16" stroke-linecap="round"/>
  <path d="M278 390l16 34" fill="none" stroke="#1f2937" stroke-width="16" stroke-linecap="round"/>

  <rect x="158" y="302" width="104" height="62" rx="14" fill="#ffffff" stroke="#93c5fd" stroke-width="3"/>
  <rect x="172" y="316" width="76" height="34" rx="10" fill="#1e293b"/>
  <rect x="332" y="266" width="66" height="46" rx="14" fill="#ffffff" stroke="#7dd3fc" stroke-width="3"/>
  <rect x="344" y="280" width="42" height="8" rx="4" fill="#2563eb"/>
  <rect x="344" y="294" width="28" height="8" rx="4" fill="#bae6fd"/>
</svg>