<svg xmlns="http://www.w3.org/2000/svg" viewBox="0 0 500 500" role="img" aria-labelledby="title desc">
  <title id="title">Pessoa preta estudando com laptop</title>
  <desc id="desc">Ilustracao de uma pessoa preta estudando em uma mesa com laptop, livros e elementos de aprendizado.</desc>
  <defs>
    <linearGradient id="bg" x1="0" y1="0" x2="1" y2="1">
      <stop offset="0%" stop-color="#eef6ff"/>
      <stop offset="100%" stop-color="#dbeafe"/>
    </linearGradient>
    <linearGradient id="panel" x1="0" y1="0" x2="1" y2="1">
      <stop offset="0%" stop-color="#ffffff" stop-opacity="0.95"/>
      <stop offset="100%" stop-color="#e0f2fe" stop-opacity="0.95"/>
    </linearGradient>
  </defs>

  <rect width="500" height="500" rx="36" fill="url(#bg)"/>
  <circle cx="92" cy="98" r="46" fill="#bfdbfe" opacity="0.65"/>
  <circle cx="408" cy="128" r="34" fill="#a5f3fc" opacity="0.75"/>
  <circle cx="416" cy="390" r="54" fill="#dbeafe" opacity="0.7"/>

  <rect x="78" y="82" width="108" height="72" rx="20" fill="url(#panel)" stroke="#93c5fd"/>
  <rect x="92" y="100" width="55" height="8" rx="4" fill="#2563eb" opacity="0.88"/>
  <rect x="92" y="116" width="78" height="8" rx="4" fill="#7dd3fc"/>
  <rect x="92" y="132" width="46" height="8" rx="4" fill="#cbd5e1"/>

  <rect x="132" y="310" width="240" height="18" rx="9" fill="#2563eb" opacity="0.12"/>
  <rect x="122" y="318" width="256" height="96" rx="18" fill="#8b5e34"/>
  <rect x="150" y="198" width="190" height="120" rx="24" fill="#ffffff" stroke="#93c5fd" stroke-width="3"/>
  <rect x="175" y="215" width="138" height="84" rx="12" fill="#1e293b"/>
  <rect x="232" y="302" width="24" height="16" rx="6" fill="#cbd5e1"/>

  <ellipse cx="250" cy="190" rx="48" ry="52" fill="#1f2937"/>
  <path d="M202 190c0-28 22-50 48-50s48 22 48 50v8c-10-8-23-12-37-12h-22c-14 0-27 4-37 12z" fill="#111827"/>
  <ellipse cx="250" cy="196" rx="34" ry="38" fill="#6b4423"/>
  <circle cx="236" cy="192" r="4" fill="#111827"/>
  <circle cx="264" cy="192" r="4" fill="#111827"/>
  <path d="M238 210c7 8 17 8 24 0" fill="none" stroke="#4a2f18" stroke-width="4" stroke-linecap="round"/>
  <path d="M224 224h52l-8 34h-36z" fill="#f59e0b"/>
  <path d="M216 260c12 10 56 10 68 0l12 58H204z" fill="#2563eb"/>
  <rect x="204" y="316" width="92" height="68" rx="18" fill="#1d4ed8"/>
  <path d="M216 268l-22 36" fill="none" stroke="#6b4423" stroke-width="16" stroke-linecap="round"/>
  <path d="M286 268l28 32" fill="none" stroke="#6b4423" stroke-width="16" stroke-linecap="round"/>
  <path d="M220 382l-18 42" fill="none" stroke="#1e293b" stroke-width="16" stroke-linecap="round"/>
  <path d="M280 382l18 42" fill="none" stroke="#1e293b" stroke-width="16" stroke-linecap="round"/>

  <rect x="96" y="330" width="38" height="62" rx="10" fill="#f97316"/>
  <rect x="108" y="344" width="14" height="8" rx="4" fill="#fed7aa"/>
  <rect x="352" y="338" width="46" height="52" rx="10" fill="#0ea5e9"/>
  <rect x="360" y="350" width="30" height="6" rx="3" fill="#dbeafe"/>
  <rect x="360" y="362" width="20" height="6" rx="3" fill="#bae6fd"/>
</svg>